<svg width="1343" height="355" viewBox="0 0 1343 355" fill="none" xmlns="http://www.w3.org/2000/svg">
<circle cx="162.5" cy="192.5" r="142.023" transform="rotate(9.00402 162.5 192.5)" fill="#CA9F87"/>
<path fill-rule="evenodd" clip-rule="evenodd" d="M250.038 80.63L21.0215 180.012C21.3103 176.776 21.7112 173.529 22.2271 170.273C24.1829 157.93 27.6736 146.213 32.474 135.284L209.514 58.4581C224.406 63.6621 238.036 71.2206 250.038 80.63Z" fill="#EBEBEB"/>
<path fill-rule="evenodd" clip-rule="evenodd" d="M298.51 151.501L39.6782 263.82C31.3473 249.493 25.4841 233.667 22.5672 217.001L275.941 107.05C285.955 120.348 293.641 135.388 298.51 151.501Z" fill="#F5F5F5"/>
<path fill-rule="evenodd" clip-rule="evenodd" d="M21.1475 178.672L248.976 79.8055C259.492 87.8896 268.786 97.3834 276.618 107.956L22.7667 218.115C20.4305 205.37 19.8189 192.123 21.1475 178.672Z" fill="#E28A64"/>
<path fill-rule="evenodd" clip-rule="evenodd" d="M304.264 183.438L59.071 289.839C50.2929 280.498 42.8021 270.005 36.8198 258.662L296.687 145.893C300.852 157.849 303.447 170.46 304.264 183.438Z" fill="#E28A64"/>
<path fill-rule="evenodd" clip-rule="evenodd" d="M298.093 234.813C300.106 228.332 301.68 221.627 302.773 214.727C304.481 203.946 304.928 193.256 304.223 182.808L58.6402 289.379C70.4896 302.099 84.7143 312.708 100.762 320.444L298.093 234.813Z" fill="#EBEBEB"/>
<path d="M218.693 220.075L221.565 195.03L244.69 184.994L264.944 200.003L262.073 225.048L238.947 235.084L218.693 220.075Z" fill="#EBEBEB"/>
<path d="M224.243 218.151L226.467 198.75L244.381 190.976L260.071 202.603L257.847 222.004L239.933 229.778L224.243 218.151Z" fill="#F6743C"/>
<path d="M431.25 264.25C418.417 264.25 406.75 261.833 396.25 257C385.917 252.167 377.833 245.5 372 237C366.167 228.5 363.25 218.917 363.25 208.25C363.25 200.75 366.417 195.583 372.75 192.75C379.25 189.75 388.417 188.25 400.25 188.25C399.75 190.917 399.5 194.917 399.5 200.25C399.5 210.75 402.167 218.75 407.5 224.25C412.833 229.583 420.75 232.25 431.25 232.25C441.583 232.25 449.417 229.25 454.75 223.25C460.25 217.25 463 208.583 463 197.25V118.75H439.25C430.917 118.75 424.667 116.167 420.5 111C416.5 105.667 414.5 97.6667 414.5 87H481.75C486.75 87 491 88.6667 494.5 92C498 95.1667 499.75 99.0833 499.75 103.75V197.25C499.75 210.083 496.75 221.583 490.75 231.75C484.917 241.917 476.75 249.917 466.25 255.75C455.917 261.417 444.25 264.25 431.25 264.25ZM639.273 238.25C639.273 246.583 636.523 253 631.023 257.5C625.523 262 617.357 264.25 606.523 264.25V249.5C609.023 246.833 611.107 244 612.773 241L611.023 240C600.523 256.167 586.357 264.25 568.523 264.25C560.19 264.25 552.607 262.333 545.773 258.5C538.94 254.5 533.523 249 529.523 242C525.69 234.833 523.773 226.75 523.773 217.75V154.75C523.773 147.583 526.523 142.5 532.023 139.5C537.69 136.333 546.357 134.75 558.023 134.75V215.25C558.023 221.25 559.857 226 563.523 229.5C567.19 233 572.523 234.75 579.523 234.75C587.523 234.75 593.773 232.25 598.273 227.25C602.773 222.083 605.023 215.5 605.023 207.5V154.75C605.023 147.583 607.773 142.5 613.273 139.5C618.94 136.333 627.607 134.75 639.273 134.75V238.25ZM666.893 157.5C666.893 151.167 669.559 145.833 674.893 141.5C680.226 137 688.059 134.75 698.393 134.75V148.25C696.393 150.75 694.809 153 693.643 155L694.893 156C700.059 148.833 705.809 143.5 712.143 140C718.643 136.5 726.726 134.75 736.393 134.75C745.393 134.75 753.393 136.667 760.393 140.5C767.559 144.333 773.059 149.75 776.893 156.75C780.893 163.583 782.893 171.417 782.893 180.25V218.75C782.893 227.75 780.643 235.75 776.143 242.75C771.809 249.583 765.726 254.917 757.893 258.75C750.226 262.417 741.559 264.25 731.893 264.25C726.226 264.25 720.059 263.083 713.393 260.75C706.893 258.417 701.476 255.167 697.143 251L696.143 252.25C696.976 253.583 698.809 255.25 701.643 257.25V291.75C701.643 306.75 690.059 314.25 666.893 314.25V157.5ZM724.893 234.75C732.559 234.75 738.393 233.167 742.393 230C746.559 226.833 748.643 222.333 748.643 216.5V182.75C748.643 176.75 746.559 172.167 742.393 169C738.393 165.833 732.559 164.25 724.893 164.25C717.893 164.25 712.143 165.917 707.643 169.25C703.309 172.417 701.143 176.5 701.143 181.5V217.5C701.143 222.333 703.309 226.417 707.643 229.75C712.143 233.083 717.893 234.75 724.893 234.75ZM827.57 125.25C821.237 125.25 815.904 123.417 811.57 119.75C807.404 115.917 805.32 111 805.32 105C805.32 99 807.404 94.1667 811.57 90.5C815.904 86.6667 821.237 84.75 827.57 84.75C833.904 84.75 839.154 86.6667 843.32 90.5C847.654 94.1667 849.82 99 849.82 105C849.82 111 847.654 115.917 843.32 119.75C839.154 123.417 833.904 125.25 827.57 125.25ZM810.32 154.75C810.32 147.583 813.154 142.5 818.82 139.5C824.487 136.333 833.07 134.75 844.57 134.75V244.25C844.57 251.417 841.737 256.583 836.07 259.75C830.404 262.75 821.82 264.25 810.32 264.25V154.75ZM928.861 264.25C914.695 264.25 904.278 260.167 897.611 252C890.945 243.833 887.611 233.333 887.611 220.5V162.25H861.111C861.111 153.75 862.695 147.417 865.861 143.25C869.028 139.083 873.195 137 878.361 137H888.111V117.25C888.111 110.083 890.861 105 896.361 102C901.861 98.8333 910.195 97.25 921.361 97.25V137H954.611C954.611 146 952.945 152.5 949.611 156.5C946.278 160.333 940.778 162.25 933.111 162.25H921.861V219.25C921.861 224.75 922.945 228.75 925.111 231.25C927.278 233.583 931.028 234.75 936.361 234.75C942.195 234.75 948.195 233.083 954.361 229.75C956.195 231.417 957.611 233.5 958.611 236C959.778 238.5 960.361 241 960.361 243.5C960.361 246.833 959.195 250.083 956.861 253.25C954.528 256.417 950.945 259.083 946.111 261.25C941.445 263.25 935.695 264.25 928.861 264.25ZM1030.02 264.25C1019.69 264.25 1010.1 262.167 1001.27 258C992.605 253.833 985.688 248.167 980.521 241C975.355 233.833 972.771 225.833 972.771 217V185C972.771 175.667 975.355 167.167 980.521 159.5C985.855 151.667 992.938 145.583 1001.77 141.25C1010.6 136.917 1020.1 134.75 1030.27 134.75C1040.27 134.75 1049.44 136.833 1057.77 141C1066.27 145 1072.94 150.75 1077.77 158.25C1082.6 165.583 1085.02 173.917 1085.02 183.25V196.75C1085.02 200.75 1083.52 204.167 1080.52 207C1077.52 209.667 1073.69 211 1069.02 211H1006.02V214.5C1006.02 221.167 1008.02 226.667 1012.02 231C1016.19 235.167 1022.27 237.25 1030.27 237.25C1038.1 237.25 1043.85 235.583 1047.52 232.25C1051.19 228.75 1053.02 224.417 1053.02 219.25C1056.35 218.917 1058.85 218.75 1060.52 218.75C1067.35 218.75 1072.6 220.167 1076.27 223C1079.94 225.833 1081.77 230 1081.77 235.5C1081.77 240 1079.52 244.5 1075.02 249C1070.52 253.5 1064.27 257.167 1056.27 260C1048.44 262.833 1039.69 264.25 1030.02 264.25ZM1054.02 186.75V183.25C1054.02 176.583 1051.77 171.333 1047.27 167.5C1042.94 163.5 1037.19 161.5 1030.02 161.5C1022.85 161.5 1017.02 163.5 1012.52 167.5C1008.19 171.333 1006.02 176.583 1006.02 183.25V186.75H1054.02ZM1175.32 164.25C1165.32 164.25 1157.23 166.833 1151.07 172C1144.9 177.167 1141.82 183.667 1141.82 191.5V244.25C1141.82 251.417 1138.98 256.583 1133.32 259.75C1127.82 262.75 1119.23 264.25 1107.57 264.25V160.75C1107.57 152.417 1110.32 146 1115.82 141.5C1121.32 137 1129.48 134.75 1140.32 134.75V149.5C1137.82 152.167 1135.73 155 1134.07 158L1135.82 159C1146.32 142.833 1159.4 134.75 1175.07 134.75C1182.57 134.75 1188.23 136.75 1192.07 140.75C1195.9 144.75 1197.82 149.833 1197.82 156C1197.82 160.667 1196.57 164.75 1194.07 168.25C1189.4 165.583 1183.15 164.25 1175.32 164.25ZM1217.92 157.5C1217.92 151.167 1220.58 145.833 1225.92 141.5C1231.25 137 1239.08 134.75 1249.42 134.75V148.25C1247.42 150.75 1245.83 153 1244.67 155L1245.92 156C1251.08 148.833 1256.83 143.5 1263.17 140C1269.67 136.5 1277.75 134.75 1287.42 134.75C1296.42 134.75 1304.42 136.667 1311.42 140.5C1318.58 144.333 1324.08 149.75 1327.92 156.75C1331.92 163.583 1333.92 171.417 1333.92 180.25V218.75C1333.92 227.75 1331.67 235.75 1327.17 242.75C1322.83 249.583 1316.75 254.917 1308.92 258.75C1301.25 262.417 1292.58 264.25 1282.92 264.25C1277.25 264.25 1271.08 263.083 1264.42 260.75C1257.92 258.417 1252.5 255.167 1248.17 251L1247.17 252.25C1248 253.583 1249.83 255.25 1252.67 257.25V291.75C1252.67 306.75 1241.08 314.25 1217.92 314.25V157.5ZM1275.92 234.75C1283.58 234.75 1289.42 233.167 1293.42 230C1297.58 226.833 1299.67 222.333 1299.67 216.5V182.75C1299.67 176.75 1297.58 172.167 1293.42 169C1289.42 165.833 1283.58 164.25 1275.92 164.25C1268.92 164.25 1263.17 165.917 1258.67 169.25C1254.33 172.417 1252.17 176.5 1252.17 181.5V217.5C1252.17 222.333 1254.33 226.417 1258.67 229.75C1263.17 233.083 1268.92 234.75 1275.92 234.75Z" fill="#F6743C"/>
</svg>
