<svg xmlns="http://www.w3.org/2000/svg" xml:space="preserve" width="1628.0999755859375" height="556.9000244140625" x="0px" y="0px" style="enable-background:new 0 0 1628.1 556.9" viewBox="0 0 1628.1 556.9"><path d="m200.5 338-42-40-21.2 68.4zM220 190.8 102.6 210l54.1 67.5zm-71.1 101.1h-19.7l14 17.2zm193.8 64.6-59.6 64.7 82.1-30.3zm76.5-1-65-2 22 33.7zm-132-47.2c9.3 5.5 18.9 11 28.2 16.4l-28.7-31.8v.3c-.4 4.6-.8 8.6-.8 12.6 0 .8.8 2.2 1.3 2.5zm-1.3-41.3c1.5-1.3 2.9-2.6 4.2-4 .6-.7 1.3-1.3 2-1.9 1.4-1.3 3.6-3.3 3.7-4.4.4-8.5.4-17.3.4-25.8L285.9 267zm12.1 4.5 136.1-4.2-30.3-90.9zm128.7 7.4L293 283l51.5 57.1zm-183.9-89 34.5 66 17.2-60.1zm400.2 88 43.8-35.5-38.6-12.1zm-334.6-59.4V247l79.9-71.7-7 1.8c-23.3 6-47.4 12.2-71 18.6-.5.4-1.5 2-1.6 3.1-.4 5.2-.4 10.6-.4 15.9.1 1.2.1 2.5.1 3.8zM775 231.2l-70.3 13.6v68.7zM313.4 183l79.8-20.7-48.3-37zm379.4 49.5c2.7.8 5.4 1.7 7.6 1.3 10.5-1.8 21.2-3.8 31.7-5.8h-53.7c4.6 1.5 9 2.9 13.5 4.2l.9.3zm-.7 20.1-46.3 37.5 46.3 26.2zm-480.7 79.7c.6.2 2.5.2 3.6-.3 14.1-6 28.3-12.4 42.1-18.5l3.2-1.4-85.3-16.6c1.1 1.2 2.3 2.3 3.4 3.4 11.3 11.6 22.1 22.6 33 33.4zm232.5 100.8c.1.1.7.5 2.4.5h3.1c3 0 6 0 8.9.1 2.9 0 5.7.1 8.6.1h71.8l-95.2-70.4v67.8c0 .9.1 1.6.4 1.9zM689.8 328l-51.7-29.4-65 121.6zm-53.3-103.9c-12.3-6.6-24.9-13.1-37.1-19.5l-4.1-2.2 37 69.7c1.7-15.2 3.5-30.9 5-46.3 0-.4-.5-1.4-.8-1.7zM431.2 360.7l-46.5 34.2 46.5 31.9zm196-65.6-70.8-12.9 4.8 136.4zm-351.1-10.5-73.2 4.8 71.6 13.8zM506 206.4l49.7-67.7-52.4-9.6zm4.6 18.6 37.7 40 24.3-64.8zm-4.2 77.8 35.7-28.1-35.7-37.7zm-9.1 20.1L446 351.2l96.2 71.1zm60.8-51.8 67.3 12.2-42.1-79.5zm-413.7 8.8-14.3-17.2-5.6 17.2zM576 185c-3.3-11-6.7-22-10.4-33.6-.5-1.6-1-3.3-1.6-5l-45.9 62.4c20.1-7 39.3-14.7 57.2-22.1.3-.3.7-1.3.7-1.7zm-30.8 101.7c-2.6 2-5.1 4.1-7.6 6-9.4 7.5-18.4 14.5-27.5 21.4-2.8 2.1-3.1 3.3-1.4 7 10.1 22.2 20.4 44.8 30.2 66.6 3.6 7.9 7.2 15.8 10.7 23.7l-4.4-124.7zm-210.6 62-51-29.3-12.2 97.8zm-62.4-29.6-11.8 5.4 8.8 18.7zm-103.7-38.7 105.2-7-41.7-80zm245.1-110.2 24.4 73.2 2.2-73.2zm40.8-5.3 40.3 43.2-2.5-74.9zm-5.5 95.1 43.8-37.6-41.4-44.3zm-87 81.2c20.5 1.7 40.9 2.4 60.7 3.1l6.1.2c1.8.1 2 .1 2.2-3.2.4-4.8.9-9.5 1.3-14.3.4-4.1.8-8.2 1.2-12.2.7-7.6 1.3-15.2 2-23.2l.5-5.6-74 55.2zm132.4-105.3-42.4 36.4 42.4 31.5zm-4.8 78.4-41.9-31.2-5.3 57.3z" style="fill:none"/><path d="M794.2 221c-.8-1.9-2.9-3.1-6.8-3.8-1.8-.3-3.6-.3-5.4-.3h-1.7l-29.1-.2c-32.6-.2-66.3-.4-99.5-.7-3.7 0-7.1-.8-9.7-2.1-17.1-8.6-33.9-17.4-50.1-26.1-2-1.1-4-3.5-4.8-5.7-4.4-13.2-8.8-27.2-14.3-45.6-1.5-4.9-4.2-7.3-9.3-8.2l-1.4-.2c-18-3.1-36.6-6.3-54.8-10.2-9.5-2-16.1-.2-22 6.1-4.4 4.7-31.1 29.6-40.7 33.1-9.2 3.3-31.4.9-33.1.8-2.8-.6-7.9-2-9.7-3.3-12.6-9.4-25.3-19.1-37.6-28.6L351 115.8c-4.3-3.3-6.4-4.9-9-4.4-2.7.6-4 3-6.7 7.9l-7.2 13.2c-8.7 16-17.8 32.5-26.5 48.8-1.5 2.9-2.9 3.6-5.8 3.2-9.4-1.3-19-2.3-28.3-3.3l-1.5-.2c-2.8-.3-5.6-.7-8.4-1-14.5-1.8-29.5-3.6-44.7.3-5.4 1.4-11.2 2.2-16.8 3-2.6.4-5.3.7-7.9 1.2l-24 3.9c-22.5 3.6-45.7 7.4-68.6 11.2-3.4.6-7.1 1.4-8.2 4.3-1 2.6.5 5.4 3.4 9.1 2.7 3.5 5.5 7 8.3 10.4 6.6 8.4 13.5 17 20 25.7 1.1 1.5 1.7 4.7 1.2 6.6-1.9 7.1-4.4 14.9-7.9 24.4-1.8 4.8-1.1 8.6 2.5 12.7 8.2 9.4 15.3 18.1 21.8 26.7 1 1.3 1.5 4.3 1 6.1-2.5 9.2-5.3 18.5-7.9 27.5-1.7 5.8-3.5 11.8-5.2 17.8l-.1.2c-.8 2.9-2 7 .3 9.2 1.9 1.8 5.2 1.6 10.1-.5 16.1-7 32.3-14.2 48.1-21.2 5.1-2.3 10.2-4.5 15.3-6.8 12.7-5.6 25.5-11.3 38.5-17L250 329l3.1 6.6c4.4 9.3 8.6 18.1 12.7 27 .5 1 .6 2.4.5 3.8-2.4 20.3-5 41.4-7.6 62.7-.5 4.1-.8 7.7 1.6 9.6 2.3 1.9 5.8.8 9.8-.6l16.1-5.9c26.2-9.6 53.3-19.6 79.9-29.6 4.8-1.8 7.9-1.5 11.7 1.3 17.4 12.5 35.4 24.8 52.7 36.7l3.6 2.5c2.1 1.4 4.9 1.8 6.9 1.8l9.8.1c32.9.4 66.8.8 100.3.9 4.6 0 9.9-1.8 13.5-4.7 36.4-28.4 73.1-57.5 108.7-85.6l10.2-8c2.1-1.7 4.4-3.3 6.6-5 5.7-4.2 11.6-8.6 16.3-14 23.4-26.7 46.8-54.2 69.4-80.9 5.3-6.3 10.7-12.6 16-18.9.5-.7 3.8-4.7 2.4-7.8zm-480.8-38 31.5-57.8 48.3 37-79.8 20.8zm-3.1 12.6c23.6-6.3 47.7-12.5 71-18.6l7-1.8-79.9 71.8v-32.4c0-5.2 0-10.6.4-15.9 0-1 1-2.7 1.5-3.1zM775 231.2l-70.3 82.3v-68.7l70.3-13.6zm-96.7-3.2H732c-10.4 2-21.1 4-31.7 5.8-2.2.4-4.9-.5-7.6-1.3l-1-.3c-4.3-1.3-8.8-2.7-13.4-4.2zm-83-25.5 4.1 2.2c12.2 6.4 24.8 12.9 37.1 19.5.3.3.8 1.3.8 1.7-1.5 15.4-3.3 31.1-5 46.3l-37-69.7zM689.8 328l-116.7 92.2 65-121.5 51.7 29.3zM643 277.9l5.3-47.6 38.6 12.1-43.9 35.5zm49.1-25.3v63.7L645.8 290l46.3-37.4zM443.5 376.7v-13.4l95.2 70.4h-71.8c-2.9 0-5.7 0-8.6-.1-2.9 0-5.9-.1-8.9-.1h-3.1c-1.7 0-2.2-.3-2.4-.5-.3-.3-.4-1-.4-2v-54.3zm-12.3-16v66.1l-46.5-31.9 46.5-34.2zm-12-5.2-43 31.7-22-33.7 65 2zm-76.5 1 22.5 34.4-82 30.3 59.5-64.7zm-193.8-64.6-5.7 17.2-14-17.2h19.7zm51.6 46.1-63.2 28.4 21.2-68.5 42 40.1zM220 190.8l-63.3 86.7-54.1-67.5L220 190.8zm22.8-.9 51.7 6-17.3 60.1-34.4-66.1zm55.2 81.6 105.8-95.1 30.3 90.8-136.1 4.3zm128.7 7.4-82.2 61.3L293 283l133.7-4.1zm-130.9-22.2c-.1 1.1-2.2 3.1-3.7 4.4-.7.6-1.4 1.3-2 1.9-1.3 1.4-2.8 2.7-4.2 4l10.3-36.1c0 8.5 0 17.2-.4 25.8zm-9.9 49.1c.1-4 .4-7.9.8-12.6v-.3l28.7 31.8c-9.3-5.3-18.9-10.8-28.2-16.4-.5-.3-1.3-1.7-1.3-2.5zM175 295.5l85.4 16.5-3.2 1.4c-13.8 6.1-28 12.5-42.1 18.5-1.1.5-3 .5-3.6.3-11-10.8-21.7-21.8-33.1-33.4-1.2-1-2.3-2.2-3.4-3.3zm101.1-10.9-1.6 18.6-71.5-13.8 73.1-4.8zm-107.6-4.2 63.5-86.9 41.8 80-105.3 6.9zm103.7 38.7-2.9 24.1-8.9-18.7 11.8-5.4zm62.4 29.6-63.2 68.5 12.2-97.9 51 29.4zm79-178.5h26.6l-2.2 73.2-24.4-73.2zm19.8 144.6c-.4 4.1-.8 8.2-1.2 12.2-.5 4.8-.9 9.5-1.3 14.3-.3 3.3-.5 3.3-2.2 3.2l-6.1-.2c-19.8-.7-40.2-1.4-60.7-3.1L436 286l-.5 5.6c-.7 8.1-1.4 15.7-2.1 23.2zm56.1-.5-47.3 26.1 5.4-57.3 41.9 31.2zM448.9 260l2.4-82 41.4 44.4-43.8 37.6zm45.4-24.1v68L452 272.4l42.3-36.5zm-39.9-71 37.7-31.7 2.6 74.9-40.3-43.2zm51.6 41.5-2.6-77.3 52.3 9.7-49.7 67.6zm4.6 18.6 62-24.8-24.3 64.8-37.7-40zm-4.2 77.8V237l35.7 37.8-35.7 28zm2.3 18.2c-1.7-3.7-1.5-4.9 1.4-7 9.2-6.8 18.1-13.9 27.5-21.4 2.5-2 5.1-4 7.6-6l4.4 124.7c-3.6-7.9-7.2-15.8-10.7-23.7-9.9-21.8-20.1-44.4-30.2-66.6zm-11.4 1.9 44.9 99.4-96.2-71.1 51.3-28.3zm129.9-27.8-66 123.5-4.8-136.4 70.8 12.9zm-69.1-24 25.2-67.3 42.2 79.5-67.4-12.2zm-40-62.3 45.9-62.4c.5 1.7 1 3.3 1.6 5 3.7 11.6 7.1 22.5 10.4 33.6 0 .4-.4 1.4-.7 1.8-17.9 7.3-37.1 15-57.2 22zm-373.7 71.1h-20l5.6-17.2 14.4 17.2zm782-20.2c-9.8-1.3-17-2-21.4-2-4.4 0-7.5.5-9.2 1.6-1.7 1-2.6 2.7-2.6 4.9s.9 3.8 2.8 4.8c1.9.9 6.3 2 13.2 3.2 7 1.2 11.9 3.1 14.8 5.7 2.9 2.6 4.4 7.2 4.4 13.8 0 6.6-2.1 11.4-6.3 14.5-4.2 3.1-10.4 4.6-18.4 4.6-5.1 0-11.5-.7-19.2-2.1l-3.9-.6.5-11.4c10 1.3 17.2 2 21.6 2 4.4 0 7.6-.5 9.4-1.6 1.9-1.1 2.8-2.9 2.8-5.4s-.9-4.2-2.7-5.2c-1.8-1-6.1-2-12.9-3.1-6.8-1.1-11.8-2.9-14.9-5.3-3.2-2.4-4.8-6.8-4.8-13.2 0-6.4 2.2-11.2 6.6-14.4 4.4-3.2 10-4.8 16.8-4.8 5.3 0 11.9.7 19.6 2l3.9.8-.1 11.2zm48.8-1.3H958v27.5c0 5.1.4 8.5 1.1 10.1.8 1.7 2.7 2.5 5.8 2.5l10.2-.4.6 10.9c-5.6 1.1-9.8 1.6-12.8 1.6-7.1 0-11.9-1.6-14.6-4.9s-3.9-9.4-3.9-18.4v-29h-8v-11.6h8v-18.1H958v18.1h17.2v11.7zm57.4 7.6v28.5c.1 1.8.6 3.2 1.4 4.1s2.2 1.4 4.1 1.7l-.4 10.4c-7.2 0-12.7-1.5-16.6-4.6-6.7 3.1-13.4 4.6-20.1 4.6-12.4 0-18.6-6.6-18.6-19.9 0-6.3 1.7-10.9 5.1-13.8 3.4-2.8 8.6-4.5 15.6-5.1l16.1-1.4V266c0-3.3-.7-5.7-2.2-7-1.5-1.3-3.6-2-6.4-2-5.3 0-12 .3-20 1l-4 .2-.5-9.6c9.1-2.2 17.4-3.2 25.1-3.2s13.1 1.6 16.5 4.9c3.2 3.3 4.9 8.6 4.9 15.7zm-28 15.5c-5.8.5-8.6 3.6-8.6 9.4s2.5 8.6 7.6 8.6c4.2 0 8.6-.7 13.2-2l2.2-.8v-16.6l-14.4 1.4zm45.1 27.8v-62.5h13.5v7.5c7.1-4.6 14.2-7.5 21.2-8.9V259c-7.2 1.4-13.3 3.2-18.4 5.5l-2.8 1.1v43.6h-13.5zm78.8-50.9h-17.2v27.5c0 5.1.4 8.5 1.1 10.1.8 1.7 2.7 2.5 5.8 2.5l10.2-.4.6 10.9c-5.6 1.1-9.8 1.6-12.8 1.6-7.1 0-11.9-1.6-14.6-4.9s-3.9-9.4-3.9-18.4v-29h-8v-11.6h8v-18.1h13.5v18.1h17.2v11.7zm49-11.6h13.5v62.5h-13.5v-3.9c-6.1 3.5-11.7 5.2-16.9 5.2-8.6 0-14.3-2.3-17.2-6.9-2.9-4.6-4.4-12.7-4.4-24.3v-32.6h13.6v32.8c0 7.5.6 12.5 1.9 15.1 1.2 2.6 4.2 3.9 8.8 3.9 4.5 0 8.6-.8 12.4-2.5l1.9-.8v-48.5zm30 89.4v-89.4h13.5v3.9c5.8-3.5 11.1-5.2 16.1-5.2 8.2 0 14.3 2.5 18.1 7.6 3.8 5 5.8 13.5 5.8 25.4s-2.2 20.2-6.6 25.1c-4.4 4.8-11.5 7.2-21.4 7.2-3.4 0-7.4-.4-11.9-1.1v26.6h-13.6zm27.2-78.7c-3.9 0-7.8.9-11.8 2.6l-1.9.9v36.9c3.3.7 7 1 11 1 5.7 0 9.6-1.6 11.8-4.9 2.2-3.2 3.2-8.8 3.2-16.6.1-13.2-4-19.9-12.3-19.9zm110.8 2.2c-9.8-1.3-17-2-21.4-2-4.4 0-7.5.5-9.2 1.6-1.7 1-2.6 2.7-2.6 4.9s.9 3.8 2.8 4.8c1.9.9 6.3 2 13.2 3.2 7 1.2 11.9 3.1 14.8 5.7 2.9 2.6 4.4 7.2 4.4 13.8 0 6.6-2.1 11.4-6.3 14.5-4.2 3.1-10.4 4.6-18.4 4.6-5.1 0-11.5-.7-19.2-2.1l-3.9-.6.5-11.4c10 1.3 17.2 2 21.6 2 4.4 0 7.6-.5 9.4-1.6 1.9-1.1 2.8-2.9 2.8-5.4s-.9-4.2-2.7-5.2c-1.8-1-6.1-2-12.9-3.1-6.8-1.1-11.8-2.9-14.9-5.3-3.2-2.4-4.8-6.8-4.8-13.2 0-6.4 2.2-11.2 6.6-14.4 4.4-3.2 10-4.8 16.8-4.8 5.3 0 11.9.7 19.6 2l3.9.8-.1 11.2zm28.9 49.6h-13.6v-88.5h13.6V250c6.2-3.1 11.9-4.6 17.1-4.6 8.3 0 14 2.4 17.1 7.1 3 4.7 4.6 12.5 4.6 23.3v33.5h-13.6v-33.1c0-6.8-.7-11.5-2.1-14.4-1.4-2.8-4.4-4.2-9-4.2-4 0-8 .7-12 2l-2 .8v48.9zm99.1-11.3 3.5-.4.2 10.1c-9.5 1.9-17.9 2.9-25.2 2.9-9.2 0-15.9-2.5-19.9-7.6-4-5.1-6.1-13.2-6.1-24.4 0-22.2 9-33.2 27.1-33.2 17.5 0 26.2 9.5 26.2 28.6l-.9 9.8h-38.8c.1 5.2 1.2 9 3.4 11.4 2.2 2.4 6.2 3.6 12.1 3.6 6 0 12.1-.3 18.4-.8zm-7.5-24.7c0-6.2-1-10.5-2.9-12.9-2-2.5-5.3-3.7-9.9-3.7-4.7 0-8.1 1.3-10.2 3.9-2.1 2.6-3.2 6.8-3.3 12.8h26.3zm27.2 36v-88.5h13.6v88.5h-13.6zm31.6 0v-88.5h13.6v88.5h-13.6z" style="fill:#d74034"/></svg>